<svg xmlns="http://www.w3.org/2000/svg" xmlns:xlink="http://www.w3.org/1999/xlink" width="100%"
           height="100%" viewBox="0 0 32 32">
<svg viewBox="142 442 42 42">
    <g transform="translate(4.42 42.42)">
        <g transform="translate(1.42 4.42)">
            <circle fill="rgba(255,230,132,1)" cx="156.1614990234375" cy="415.2" r="18.7"></circle>
            <circle fill="rgba(255,191,0,1)" cx="156.1614990234375" cy="415.2" r="16.42"></circle>
            <g transform="translate(4.2 7.7242)">
                <path fill="white"
                      d="M 142.0480804443359 406.9642944335938 C 142.0480804443359 404.8582153320312 143.7572021484375 403.1491088867188 145.8603515625 403.1491088867188 L 150.7833709716797 403.1491088867188 L 150.7833709716797 400.81201171875 L 145.8603515625 400.81201171875 C 142.4657440185547 400.81201171875 139.7080078125 403.5667724609375 139.7080078125 406.9642944335938 C 139.7080078125 410.3588256835938 142.4657440185547 413.1166076660156 145.8603515625 413.1166076660156 L 150.7833709716797 413.1166076660156 L 150.7833709716797 410.7795104980469 L 145.8603515625 410.7795104980469 C 143.7572021484375 410.7795104980469 142.0480804443359 409.0673828125 142.0480804443359 406.9642944335938 Z M 147.0925750732422 408.1935119628906 L 156.9356384277344 408.1935119628906 L 156.9356384277344 405.7319946289062 L 147.0925750732422 405.7319946289062 L 147.0925750732422 408.1935119628906 Z M 158.1678771972656 400.81201171875 L 153.2448425292969 400.81201171875 L 153.2448425292969 403.1491088867188 L 158.1678771972656 403.1491088867188 C 160.2709808349609 403.1491088867188 161.9801330566406 404.8582153320312 161.9801330566406 406.9642944335938 C 161.9801330566406 409.0673828125 160.2709808349609 410.7795104980469 158.1678771972656 410.7795104980469 L 153.2448425292969 410.7795104980469 L 153.2448425292969 413.1166076660156 L 158.1678771972656 413.1166076660156 C 161.5624694824219 413.1166076660156 164.3201751708984 410.3588256835938 164.3201751708984 406.9642944335938 C 164.3201751708984 403.5667724609375 161.5624694824219 400.81201171875 158.1678771972656 400.81201171875 Z"></path>
            </g>
            <g transform="translate(-247.9 232.2) rotate(-45)">
                <path d="M139.9,415.2 a1,1 0 0,0 32.8,0" fill="rgba(0,0,0,0.08)"></path>
            </g>
        </g>
    </g>
</svg>
</svg>